<svg width="2409" height="634" viewBox="0 0 2409 634" fill="none" xmlns="http://www.w3.org/2000/svg">
<mask id="mask0_2278_29" style="mask-type:luminance" maskUnits="userSpaceOnUse" x="0" y="0" width="2409" height="634">
<path d="M0 0.00012207H2408.39V633.288H0V0.00012207Z" fill="white"/>
</mask>
<g mask="url(#mask0_2278_29)">
<path d="M2081.36 104.075C2070.35 104.104 2016.62 107.815 2016.34 163.449C2016.23 184.873 2016.3 367.42 2016.33 468.192C2016.35 525.392 2071.19 528.169 2080.97 528.193C2084.2 528.203 2146.18 530.087 2146.15 466.808C2146.12 419.008 2146.55 208.947 2146.03 164.883C2145.97 159.429 2145.92 103.9 2081.36 104.075ZM1754.83 313.025C1754.35 190.62 1817.51 88.7427 1917.27 37.7307C1957.73 17.044 2009.76 -0.225342 2081.22 0.0293579C2089.98 0.0599976 2170.96 -2.01465 2248.03 39.192C2403.24 122.177 2407.98 279.885 2408.37 315.332C2408.68 343.371 2405.51 371.173 2398.61 398.615C2386.28 447.705 2323.06 633.36 2081.61 632.44C2028.16 632.236 1818.82 617.745 1764.29 397.743C1757.68 371.055 1754.95 343.847 1754.83 313.025Z" fill="black"/>
<path d="M389.457 364.278L502.693 15.166H651.645L462.808 616.349H207.052L0 15.166H266.624L389.457 364.278Z" fill="black"/>
<path d="M777.285 395.649H882.61L829.948 231.279L777.285 395.649ZM953.098 616.349L924.758 527.123H735.244L707.252 616.349H570.037L762.617 15.166H1010.09L1202.77 616.349H953.098Z" fill="black"/>
<path d="M1663.87 275.684C1600.72 220.127 1512.02 228.54 1468.82 198.552C1457.19 190.479 1451.52 179.039 1451.7 167.711C1452.35 127.891 1515.49 122.276 1540.86 122.406C1605.02 122.732 1666.06 156.1 1666.06 156.1L1666.19 25.5298C1666.19 25.5298 1605.55 0.000427246 1494.63 0.000427246C1321.55 0.000427246 1205.31 69.5965 1205.31 226.631C1205.31 285.036 1229.41 341.88 1279.26 375.21C1326.77 406.304 1384.97 410.598 1437.49 429.391C1456.89 436.219 1483.67 445.503 1484.08 469.98C1484.87 517.316 1417.65 516.123 1382.6 514.764C1325.01 512.534 1267.31 494.107 1214.53 472.683L1263.72 614.063C1312.1 626.454 1365.19 633.435 1417.36 633.286C1565.59 632.864 1706.44 574.895 1710.97 419.94C1712.24 376.142 1706.99 313.616 1663.87 275.684Z" fill="black"/>
</g>
</svg>
