<svg width="2409" height="634" viewBox="0 0 2409 634" fill="none" xmlns="http://www.w3.org/2000/svg">
<mask id="mask0_2278_43" style="mask-type:luminance" maskUnits="userSpaceOnUse" x="0" y="0" width="2409" height="634">
<path d="M0 -0.000857435H2408.39V633.287H0V-0.000857435Z" fill="white"/>
</mask>
<g mask="url(#mask0_2278_43)">
<path d="M2081.36 104.073C2070.35 104.102 2016.62 107.813 2016.34 163.447C2016.23 184.871 2016.3 367.418 2016.33 468.19C2016.35 525.39 2071.19 528.167 2080.97 528.191C2084.2 528.201 2146.18 530.085 2146.15 466.806C2146.12 419.006 2146.55 208.945 2146.03 164.881C2145.97 159.427 2145.92 103.898 2081.36 104.073ZM1754.83 313.023C1754.35 190.618 1817.51 88.7407 1917.27 37.7287C1957.73 17.042 2009.76 -0.227285 2081.22 0.0273814C2089.98 0.0580481 2170.96 -2.01661 2248.03 39.1901C2403.24 122.175 2407.98 279.883 2408.37 315.33C2408.68 343.369 2405.51 371.171 2398.61 398.613C2386.28 447.703 2323.06 633.358 2081.61 632.438C2028.16 632.234 1818.82 617.743 1764.29 397.741C1757.68 371.053 1754.95 343.845 1754.83 313.023Z" fill="white"/>
<path d="M389.457 364.277L502.693 15.165H651.645L462.808 616.348H207.052L0 15.165H266.624L389.457 364.277Z" fill="white"/>
<path d="M777.285 395.648H882.61L829.948 231.278L777.285 395.648ZM953.098 616.348L924.758 527.122H735.244L707.252 616.348H570.037L762.617 15.165H1010.09L1202.77 616.348H953.098Z" fill="white"/>
<path d="M1663.87 275.683C1600.72 220.126 1512.02 228.539 1468.82 198.551C1457.19 190.478 1451.52 179.038 1451.7 167.71C1452.35 127.89 1515.49 122.275 1540.86 122.405C1605.02 122.731 1666.06 156.099 1666.06 156.099L1666.19 25.5288C1666.19 25.5288 1605.55 -0.000531915 1494.63 -0.000531915C1321.55 -0.000531915 1205.31 69.5955 1205.31 226.63C1205.31 285.035 1229.41 341.879 1279.26 375.209C1326.77 406.303 1384.97 410.597 1437.49 429.39C1456.89 436.218 1483.67 445.502 1484.08 469.979C1484.87 517.315 1417.65 516.122 1382.6 514.763C1325.01 512.533 1267.31 494.106 1214.53 472.682L1263.72 614.062C1312.1 626.453 1365.19 633.434 1417.36 633.285C1565.59 632.863 1706.44 574.894 1710.97 419.939C1712.24 376.141 1706.99 313.615 1663.87 275.683Z" fill="white"/>
</g>
</svg>
